<?xml version="1.0" encoding="utf-8"?>
<!-- Svg Vector Icons : http://www.onlinewebfonts.com/icon -->
<!DOCTYPE svg PUBLIC "-//W3C//DTD SVG 1.1//EN" "http://www.w3.org/Graphics/SVG/1.1/DTD/svg11.dtd">
<svg version="1.1" xmlns="http://www.w3.org/2000/svg" xmlns:xlink="http://www.w3.org/1999/xlink" x="0px" y="0px" viewBox="0 0 256 256" enable-background="new 0 0 256 256" xml:space="preserve">
<metadata> Svg Vector Icons : http://www.onlinewebfonts.com/icon </metadata>
<g><g><g><path fill="#000000" d="M85.8,59.6c-5.6,1.4-9.5,4.4-15.5,12l-3.6,4.7l-3.4,0.8c-4.5,1.1-12.6,5.2-16.4,8.3c-3.5,2.9-24.4,26.3-27.6,31c-4.4,6.4-7.2,13.4-8.6,21.2C7,159,18.4,181.5,37.9,191.5c8.5,4.3,14,5.6,24.2,5.5c9.5,0,14.1-1.1,22.4-5.2c10.6-5.2,18.1-12.7,23.4-23.3c1.7-3.4,4.1-9.9,4.1-11.3c0-1.5,0.6-1.4,2.2,0.4c2.2,2.5,5,4.4,8.5,5.5c6.5,2.2,14.4,0.1,19-5.1c1.3-1.5,2.2-2.1,2.3-1.8c0.1,0.4,0.5,2,1,3.6c1.2,4.7,5.8,13.5,9.3,17.9c7.2,8.9,17.2,15.3,28.6,18.1c3.4,0.9,5.3,1,11.9,1c7,0,8.3-0.2,12.5-1.2c6.3-1.7,14.7-5.9,19.5-9.8c18.9-15.3,24.8-41.1,14.2-62.7c-1.3-2.8-3.6-6.5-4.9-8.3c-4.4-5.8-23.5-26.9-26.6-29.5c-3.8-3.2-11.7-7.2-16.3-8.3l-3.5-0.8l-3.6-4.7c-2-2.5-4.7-5.6-5.9-6.8c-6.7-6.3-16.4-7.7-24.8-3.5c-3.1,1.5-7.7,5.9-9.3,9.1c-1.8,3.3-2.9,7.3-2.9,10.6c0,1.3,0.5,4.9,1.2,8l1.2,5.5l-1.8,3l-1.8,3l-1.5-2.2c-4.9-7.1-15.8-8.3-21.9-2.3c-1,1-2.2,2.4-2.7,3.1l-0.9,1.3l-1.8-3.1l-1.8-3.1l1.2-5.5c1.4-6.4,1.5-9.2,0.5-13c-2.6-10-11.7-16.9-21.8-16.8C89.3,59,87.1,59.3,85.8,59.6z M71.9,105.5c14.9,3.9,26.4,15.6,30.2,30.8c1.2,4.7,1.1,14.8-0.2,19.7c-3.8,14.2-14.6,25.2-29,29.6c-3.6,1.1-4.7,1.2-11.2,1.2s-7.6-0.1-11.2-1.2c-14.4-4.4-25.1-15.3-29-29.6c-1.4-5.3-1.4-15.4,0-20.7c4.2-15.7,16.8-27.4,32.7-30.4C58.9,104,67.2,104.2,71.9,105.5z M204.7,105.5c14.9,3.9,26.4,15.6,30.2,30.8c1.2,4.7,1.1,14.8-0.2,19.7c-3.8,14.2-14.6,25.2-28.9,29.6c-3.7,1.2-4.8,1.3-11.3,1.3c-6.5,0-7.6-0.1-11.2-1.2c-14.4-4.4-25.1-15.3-29-29.6c-1.4-5.3-1.4-15.4,0-20.7c4.2-15.7,16.8-27.4,32.7-30.4C191.7,104,200,104.2,204.7,105.5z M132.4,135.7c7.1,3.3,8.8,12.1,3.3,17.7c-3.2,3.3-8.8,4.3-12.7,2.3c-2.2-1.2-4.7-4-5.4-6.3c-1.5-4.4-0.6-8,2.8-11.4C123.9,134.5,128.1,133.7,132.4,135.7z"/></g></g></g>
</svg>